<svg xmlns="http://www.w3.org/2000/svg" viewBox="0 0 100 140" fill="none" stroke="#a67a3c" stroke-width="1.8" stroke-linecap="round" stroke-linejoin="round">
  <!-- 茎 -->
  <path d="M50 134 C48 118 52 98 50 72 C48 52 51 38 50 20" opacity="0.85"/>
  <!-- 穂先の粒 -->
  <path d="M50 16 C47 12 47 6 50 2 C53 6 53 12 50 16 Z" fill="#d8a85e" fill-opacity="0.6"/>
  <!-- 左右の粒 (上段) -->
  <path d="M50 22 C44 20 38 16 36 10 C42 11 48 15 50 22 Z" fill="#d8a85e" fill-opacity="0.55"/>
  <path d="M50 22 C56 20 62 16 64 10 C58 11 52 15 50 22 Z" fill="#d8a85e" fill-opacity="0.55"/>
  <!-- 中段 -->
  <path d="M50 34 C43 32 36 28 33 21 C40 22 47 26 50 34 Z" fill="#d8a85e" fill-opacity="0.55"/>
  <path d="M50 34 C57 32 64 28 67 21 C60 22 53 26 50 34 Z" fill="#d8a85e" fill-opacity="0.55"/>
  <!-- 下段 -->
  <path d="M50 46 C42 44 35 40 32 32 C40 33 47 37 50 46 Z" fill="#d8a85e" fill-opacity="0.55"/>
  <path d="M50 46 C58 44 65 40 68 32 C60 33 53 37 50 46 Z" fill="#d8a85e" fill-opacity="0.55"/>
  <!-- さらに下段 -->
  <path d="M50 58 C42 56 34 52 31 44 C39 45 47 49 50 58 Z" fill="#d8a85e" fill-opacity="0.5"/>
  <path d="M50 58 C58 56 66 52 69 44 C61 45 53 49 50 58 Z" fill="#d8a85e" fill-opacity="0.5"/>
  <!-- 芒（のぎ）細い線 -->
  <path d="M50 12 L50 -2" stroke-width="1" opacity="0.6"/>
  <path d="M36 10 L28 4" stroke-width="1" opacity="0.55"/>
  <path d="M64 10 L72 4" stroke-width="1" opacity="0.55"/>
  <path d="M33 21 L24 16" stroke-width="1" opacity="0.5"/>
  <path d="M67 21 L76 16" stroke-width="1" opacity="0.5"/>
  <!-- 根元の葉 -->
  <path d="M50 110 C42 112 32 118 26 128" opacity="0.7"/>
  <path d="M50 110 C58 112 68 118 74 128" opacity="0.7"/>
  <path d="M50 92 C44 94 36 98 32 106" opacity="0.55"/>
  <path d="M50 92 C56 94 64 98 68 106" opacity="0.55"/>
</svg>
